<svg width="640" height="420" viewBox="0 0 640 420" fill="none" xmlns="http://www.w3.org/2000/svg">
<rect width="640" height="420" rx="24" fill="#163321"/>
<rect x="30" y="32" width="580" height="356" rx="20" fill="#1F4730" stroke="#7D9B76" stroke-opacity="0.38"/>
<rect x="110" y="96" width="420" height="230" rx="28" fill="#28583B"/>
<rect x="145" y="126" width="62" height="162" rx="21" fill="#E9DFCA"/>
<rect x="227" y="126" width="24" height="162" rx="12" fill="#E9DFCA"/>
<rect x="264" y="126" width="24" height="162" rx="12" fill="#E9DFCA"/>
<rect x="301" y="126" width="24" height="162" rx="12" fill="#E9DFCA"/>
<rect x="377" y="130" width="28" height="160" rx="14" fill="#E9DFCA"/>
<ellipse cx="451" cy="209" rx="38" ry="82" fill="#E9DFCA"/>
<path d="M164 96V70M198 96V70M232 96V70M266 96V70M300 96V70M334 96V70M368 96V70M402 96V70M436 96V70M470 96V70" stroke="#6FA988" stroke-width="4" stroke-linecap="round"/>
<text x="320" y="364" fill="#C6D7C4" font-family="Arial, sans-serif" font-size="22" text-anchor="middle">Reusable Dining Kit</text>
</svg>
