<svg width="640" height="420" viewBox="0 0 640 420" fill="none" xmlns="http://www.w3.org/2000/svg">
<rect width="640" height="420" rx="24" fill="#112515"/>
<rect x="36" y="34" width="568" height="352" rx="20" fill="#1E472F" stroke="#9AC79D" stroke-opacity="0.28"/>
<circle cx="320" cy="210" r="132" fill="#28593C"/>
<path d="M230 170C250 137 285 116 324 116C372 116 413 148 430 193" stroke="#E8E1D1" stroke-width="12" stroke-linecap="round"/>
<path d="M412 178L438 193L424 221" stroke="#E8E1D1" stroke-width="12" stroke-linecap="round" stroke-linejoin="round"/>
<path d="M410 252C390 285 355 306 316 306C268 306 227 274 210 229" stroke="#C9E7CC" stroke-width="12" stroke-linecap="round"/>
<path d="M228 244L202 229L216 201" stroke="#C9E7CC" stroke-width="12" stroke-linecap="round" stroke-linejoin="round"/>
<rect x="283" y="168" width="74" height="86" rx="14" fill="#F4EDDD"/>
<rect x="296" y="182" width="48" height="14" rx="7" fill="#2B6544"/>
<rect x="296" y="204" width="48" height="36" rx="10" fill="#D6ECCA"/>
<text x="320" y="362" fill="#CFE2CB" font-family="Arial, sans-serif" font-size="22" text-anchor="middle">Collection + Cleaning Loop</text>
</svg>
