<svg width="420" height="420" viewBox="0 0 420 420" fill="none" xmlns="http://www.w3.org/2000/svg">
<rect width="420" height="420" fill="#102533"/>
<circle cx="210" cy="170" r="74" fill="#E9C5A7"/>
<path d="M136 316C136 270 169 242 210 242C251 242 284 270 284 316V420H136V316Z" fill="#355A85"/>
<path d="M150 154C150 112 177 86 210 86C243 86 270 112 270 154V172H150V154Z" fill="#231815"/>
<rect x="170" y="136" width="80" height="20" rx="10" fill="#231815"/>
<circle cx="184" cy="172" r="5" fill="#35251E"/>
<circle cx="236" cy="172" r="5" fill="#35251E"/>
<path d="M188 201C194 208 201 211 210 211C219 211 226 208 232 201" stroke="#A56E56" stroke-width="4" stroke-linecap="round"/>
<text x="210" y="52" fill="#D8EAF6" font-family="Arial, sans-serif" font-size="26" text-anchor="middle">Strategy &amp; Planning</text>
</svg>
