<svg width="420" height="420" viewBox="0 0 420 420" fill="none" xmlns="http://www.w3.org/2000/svg">
  <defs>
    <linearGradient id="bgS" x1="0%" y1="100%" x2="100%" y2="0%">
      <stop offset="0%" stop-color="#0f2430"/>
      <stop offset="100%" stop-color="#152a35"/>
    </linearGradient>
    <linearGradient id="skinS" x1="0%" y1="0%" x2="100%" y2="100%">
      <stop offset="0%" stop-color="#f0d4bc"/>
      <stop offset="100%" stop-color="#d4a88a"/>
    </linearGradient>
    <linearGradient id="blazerS" x1="0%" y1="0%" x2="0%" y2="100%">
      <stop offset="0%" stop-color="#3d5c78"/>
      <stop offset="100%" stop-color="#2a4156"/>
    </linearGradient>
  </defs>
  <rect width="420" height="420" fill="url(#bgS)"/>
  <ellipse cx="210" cy="400" rx="200" ry="88" fill="#1e3a4a" opacity="0.3"/>
  <path d="M88 362c30-54 82-86 122-86s92 32 122 86v58H88V362z" fill="url(#blazerS)"/>
  <path d="M165 275h90v42c-30 14-60 14-90 0v-42z" fill="url(#skinS)"/>
  <ellipse cx="210" cy="196" rx="70" ry="86" fill="url(#skinS)"/>
  <!-- pulled-back hair / bun silhouette -->
  <path d="M142 188c6-52 48-92 108-92 42 0 78 28 92 68-28-34-58-50-92-50-48 0-84 22-108 74z" fill="#1c1410"/>
  <circle cx="268" cy="158" r="28" fill="#1c1410"/>
  <ellipse cx="210" cy="118" rx="56" ry="36" fill="#261c18"/>
  <!-- calm profile hint: cheek plane -->
  <path d="M248 192c0 28-18 48-38 52" stroke="#8b6048" stroke-width="2" stroke-linecap="round" opacity="0.35"/>
</svg>
