<svg width="420" height="420" viewBox="0 0 420 420" fill="none" xmlns="http://www.w3.org/2000/svg">
<rect width="420" height="420" fill="#152A1E"/>
<circle cx="210" cy="170" r="74" fill="#E2BE99"/>
<path d="M136 316C136 270 169 242 210 242C251 242 284 270 284 316V420H136V316Z" fill="#3F7A58"/>
<path d="M155 147C155 109 179 88 210 88C241 88 265 109 265 147V167H155V147Z" fill="#2F1D15"/>
<circle cx="183" cy="172" r="5" fill="#342016"/>
<circle cx="237" cy="172" r="5" fill="#342016"/>
<path d="M188 201C194 208 201 211 210 211C219 211 226 208 232 201" stroke="#9F5E46" stroke-width="4" stroke-linecap="round"/>
<text x="210" y="52" fill="#DCEBD8" font-family="Arial, sans-serif" font-size="26" text-anchor="middle">Marketing &amp; Sales</text>
</svg>
