<svg width="420" height="420" viewBox="0 0 420 420" fill="none" xmlns="http://www.w3.org/2000/svg">
  <defs>
    <linearGradient id="bgM" x1="0%" y1="0%" x2="100%" y2="100%">
      <stop offset="0%" stop-color="#1a3324"/>
      <stop offset="100%" stop-color="#0f1f16"/>
    </linearGradient>
    <linearGradient id="skinM" x1="0%" y1="0%" x2="0%" y2="100%">
      <stop offset="0%" stop-color="#e8c4a8"/>
      <stop offset="100%" stop-color="#c9a088"/>
    </linearGradient>
    <linearGradient id="shirtM" x1="0%" y1="0%" x2="100%" y2="0%">
      <stop offset="0%" stop-color="#4a7c59"/>
      <stop offset="100%" stop-color="#2d5a3d"/>
    </linearGradient>
  </defs>
  <rect width="420" height="420" fill="url(#bgM)"/>
  <ellipse cx="210" cy="400" rx="200" ry="90" fill="#243d2a" opacity="0.35"/>
  <!-- shoulders / blazer -->
  <path d="M85 360c28-52 78-82 125-82s97 30 125 82v60H85V360z" fill="url(#shirtM)"/>
  <path d="M120 358c18-28 48-44 90-44s72 16 90 44" stroke="#7d9b76" stroke-width="2" stroke-opacity="0.4" fill="none"/>
  <!-- neck -->
  <path d="M176 268h68v48c-22 12-46 12-68 0v-48z" fill="url(#skinM)"/>
  <!-- face (soft oval, no dot eyes) -->
  <ellipse cx="210" cy="198" rx="72" ry="88" fill="url(#skinM)"/>
  <!-- hair mass -->
  <path d="M138 195c8-58 52-98 110-98 58 0 102 40 110 98-32-36-68-54-110-54s-78 18-110 54z" fill="#1a120c"/>
  <path d="M152 168c24-44 58-66 58-66s34 22 58 66c-20-24-40-36-58-36s-38 12-58 36z" fill="#2a1f18" opacity="0.85"/>
  <!-- subtle shadow / glasses suggestion as single elegant stroke -->
  <path d="M168 208c12 8 26 12 42 12s30-4 42-12" stroke="#5c4033" stroke-width="2.2" stroke-linecap="round" opacity="0.45"/>
  <path d="M188 218h44" stroke="#5c4033" stroke-width="1.5" stroke-linecap="round" opacity="0.25"/>
</svg>
