<svg width="420" height="420" viewBox="0 0 420 420" fill="none" xmlns="http://www.w3.org/2000/svg">
<rect width="420" height="420" fill="#1C2017"/>
<circle cx="210" cy="170" r="74" fill="#EBC8A8"/>
<path d="M136 316C136 270 169 242 210 242C251 242 284 270 284 316V420H136V316Z" fill="#667C43"/>
<path d="M146 156C146 108 175 84 210 84C245 84 274 108 274 156V172H146V156Z" fill="#2E1D15"/>
<path d="M146 148C156 134 174 126 210 126C246 126 264 134 274 148V120H146V148Z" fill="#2E1D15"/>
<circle cx="184" cy="173" r="5" fill="#3B271D"/>
<circle cx="236" cy="173" r="5" fill="#3B271D"/>
<path d="M188 201C194 208 201 211 210 211C219 211 226 208 232 201" stroke="#A26B52" stroke-width="4" stroke-linecap="round"/>
<text x="210" y="52" fill="#E6EED8" font-family="Arial, sans-serif" font-size="25" text-anchor="middle">Operations &amp; Finance</text>
</svg>
